<mxfile host="app.diagrams.net" agent="Mozilla/5.0 (Windows NT 10.0; Win64; x64) AppleWebKit/537.36 (KHTML, like Gecko) Chrome/129.0.0.0 Safari/537.36" version="24.7.12">
  <diagram name="第 1 页" id="lDTQHQgrdSQ6LvHH2R1e">
    <mxGraphModel dx="2501" dy="1144" grid="1" gridSize="10" guides="1" tooltips="1" connect="1" arrows="1" fold="1" page="1" pageScale="1" pageWidth="827" pageHeight="1169" math="0" shadow="0">
      <root>
        <mxCell id="0" />
        <mxCell id="1" parent="0" />
        <mxCell id="csrXkD2PDQeKHo_xAZEF-16" style="edgeStyle=orthogonalEdgeStyle;rounded=0;orthogonalLoop=1;jettySize=auto;html=1;entryX=0;entryY=0.25;entryDx=0;entryDy=0;" edge="1" parent="1" source="csrXkD2PDQeKHo_xAZEF-1" target="csrXkD2PDQeKHo_xAZEF-9">
          <mxGeometry relative="1" as="geometry" />
        </mxCell>
        <mxCell id="csrXkD2PDQeKHo_xAZEF-17" style="edgeStyle=orthogonalEdgeStyle;rounded=0;orthogonalLoop=1;jettySize=auto;html=1;entryX=0;entryY=0.5;entryDx=0;entryDy=0;" edge="1" parent="1" source="csrXkD2PDQeKHo_xAZEF-1" target="csrXkD2PDQeKHo_xAZEF-10">
          <mxGeometry relative="1" as="geometry" />
        </mxCell>
        <mxCell id="csrXkD2PDQeKHo_xAZEF-18" style="edgeStyle=orthogonalEdgeStyle;rounded=0;orthogonalLoop=1;jettySize=auto;html=1;" edge="1" parent="1" source="csrXkD2PDQeKHo_xAZEF-1" target="csrXkD2PDQeKHo_xAZEF-11">
          <mxGeometry relative="1" as="geometry" />
        </mxCell>
        <mxCell id="csrXkD2PDQeKHo_xAZEF-19" style="edgeStyle=orthogonalEdgeStyle;rounded=0;orthogonalLoop=1;jettySize=auto;html=1;entryX=0;entryY=0.5;entryDx=0;entryDy=0;" edge="1" parent="1" source="csrXkD2PDQeKHo_xAZEF-1" target="csrXkD2PDQeKHo_xAZEF-12">
          <mxGeometry relative="1" as="geometry" />
        </mxCell>
        <mxCell id="csrXkD2PDQeKHo_xAZEF-35" style="edgeStyle=orthogonalEdgeStyle;rounded=0;orthogonalLoop=1;jettySize=auto;html=1;entryX=0.25;entryY=0;entryDx=0;entryDy=0;" edge="1" parent="1" source="csrXkD2PDQeKHo_xAZEF-1" target="csrXkD2PDQeKHo_xAZEF-21">
          <mxGeometry relative="1" as="geometry">
            <Array as="points">
              <mxPoint x="-260" y="290" />
              <mxPoint x="-260" y="290" />
            </Array>
          </mxGeometry>
        </mxCell>
        <mxCell id="csrXkD2PDQeKHo_xAZEF-41" style="edgeStyle=orthogonalEdgeStyle;rounded=0;orthogonalLoop=1;jettySize=auto;html=1;entryX=0.25;entryY=1;entryDx=0;entryDy=0;" edge="1" parent="1" source="csrXkD2PDQeKHo_xAZEF-1" target="csrXkD2PDQeKHo_xAZEF-39">
          <mxGeometry relative="1" as="geometry" />
        </mxCell>
        <mxCell id="csrXkD2PDQeKHo_xAZEF-1" value="&lt;font style=&quot;font-size: 30px;&quot;&gt;control&lt;/font&gt;" style="rounded=0;whiteSpace=wrap;html=1;" vertex="1" parent="1">
          <mxGeometry x="-320" y="210" width="240" height="60" as="geometry" />
        </mxCell>
        <mxCell id="csrXkD2PDQeKHo_xAZEF-4" value="config" style="swimlane;fontStyle=0;childLayout=stackLayout;horizontal=1;startSize=30;horizontalStack=0;resizeParent=1;resizeParentMax=0;resizeLast=0;collapsible=1;marginBottom=0;whiteSpace=wrap;html=1;" vertex="1" parent="1">
          <mxGeometry x="-580" y="180" width="140" height="120" as="geometry">
            <mxRectangle x="-540" y="210" width="70" height="30" as="alternateBounds" />
          </mxGeometry>
        </mxCell>
        <mxCell id="csrXkD2PDQeKHo_xAZEF-5" value="log" style="text;strokeColor=none;fillColor=none;align=left;verticalAlign=middle;spacingLeft=4;spacingRight=4;overflow=hidden;points=[[0,0.5],[1,0.5]];portConstraint=eastwest;rotatable=0;whiteSpace=wrap;html=1;" vertex="1" parent="csrXkD2PDQeKHo_xAZEF-4">
          <mxGeometry y="30" width="140" height="30" as="geometry" />
        </mxCell>
        <mxCell id="csrXkD2PDQeKHo_xAZEF-6" value="asset" style="text;strokeColor=none;fillColor=none;align=left;verticalAlign=middle;spacingLeft=4;spacingRight=4;overflow=hidden;points=[[0,0.5],[1,0.5]];portConstraint=eastwest;rotatable=0;whiteSpace=wrap;html=1;" vertex="1" parent="csrXkD2PDQeKHo_xAZEF-4">
          <mxGeometry y="60" width="140" height="30" as="geometry" />
        </mxCell>
        <mxCell id="csrXkD2PDQeKHo_xAZEF-7" value="......" style="text;strokeColor=none;fillColor=none;align=left;verticalAlign=middle;spacingLeft=4;spacingRight=4;overflow=hidden;points=[[0,0.5],[1,0.5]];portConstraint=eastwest;rotatable=0;whiteSpace=wrap;html=1;" vertex="1" parent="csrXkD2PDQeKHo_xAZEF-4">
          <mxGeometry y="90" width="140" height="30" as="geometry" />
        </mxCell>
        <mxCell id="csrXkD2PDQeKHo_xAZEF-8" style="edgeStyle=orthogonalEdgeStyle;rounded=0;orthogonalLoop=1;jettySize=auto;html=1;entryX=0;entryY=0.5;entryDx=0;entryDy=0;" edge="1" parent="1" source="csrXkD2PDQeKHo_xAZEF-6" target="csrXkD2PDQeKHo_xAZEF-1">
          <mxGeometry relative="1" as="geometry" />
        </mxCell>
        <mxCell id="csrXkD2PDQeKHo_xAZEF-43" style="edgeStyle=orthogonalEdgeStyle;rounded=0;orthogonalLoop=1;jettySize=auto;html=1;entryX=1;entryY=0.5;entryDx=0;entryDy=0;" edge="1" parent="1" source="csrXkD2PDQeKHo_xAZEF-9" target="csrXkD2PDQeKHo_xAZEF-39">
          <mxGeometry relative="1" as="geometry">
            <Array as="points">
              <mxPoint x="250" y="140" />
              <mxPoint x="250" y="50" />
            </Array>
          </mxGeometry>
        </mxCell>
        <mxCell id="csrXkD2PDQeKHo_xAZEF-9" value="&lt;font style=&quot;font-size: 20px;&quot;&gt;alerter-1&lt;/font&gt;" style="rounded=0;whiteSpace=wrap;html=1;" vertex="1" parent="1">
          <mxGeometry x="110" y="110" width="120" height="60" as="geometry" />
        </mxCell>
        <mxCell id="csrXkD2PDQeKHo_xAZEF-44" style="edgeStyle=orthogonalEdgeStyle;rounded=0;orthogonalLoop=1;jettySize=auto;html=1;entryX=1;entryY=0.5;entryDx=0;entryDy=0;" edge="1" parent="1" source="csrXkD2PDQeKHo_xAZEF-10" target="csrXkD2PDQeKHo_xAZEF-39">
          <mxGeometry relative="1" as="geometry">
            <Array as="points">
              <mxPoint x="250" y="210" />
              <mxPoint x="250" y="50" />
            </Array>
          </mxGeometry>
        </mxCell>
        <mxCell id="csrXkD2PDQeKHo_xAZEF-10" value="&lt;font style=&quot;font-size: 20px;&quot;&gt;alerter-2&lt;/font&gt;" style="rounded=0;whiteSpace=wrap;html=1;" vertex="1" parent="1">
          <mxGeometry x="110" y="180" width="120" height="60" as="geometry" />
        </mxCell>
        <mxCell id="csrXkD2PDQeKHo_xAZEF-45" style="edgeStyle=orthogonalEdgeStyle;rounded=0;orthogonalLoop=1;jettySize=auto;html=1;entryX=1;entryY=0.5;entryDx=0;entryDy=0;" edge="1" parent="1" source="csrXkD2PDQeKHo_xAZEF-11" target="csrXkD2PDQeKHo_xAZEF-39">
          <mxGeometry relative="1" as="geometry">
            <Array as="points">
              <mxPoint x="250" y="280" />
              <mxPoint x="250" y="50" />
            </Array>
          </mxGeometry>
        </mxCell>
        <mxCell id="csrXkD2PDQeKHo_xAZEF-11" value="&lt;font style=&quot;font-size: 20px;&quot;&gt;alerter-3&lt;/font&gt;" style="rounded=0;whiteSpace=wrap;html=1;" vertex="1" parent="1">
          <mxGeometry x="110" y="250" width="120" height="60" as="geometry" />
        </mxCell>
        <mxCell id="csrXkD2PDQeKHo_xAZEF-12" value="&lt;font style=&quot;font-size: 20px;&quot;&gt;alerter1&lt;/font&gt;" style="rounded=0;whiteSpace=wrap;html=1;" vertex="1" parent="1">
          <mxGeometry x="110" y="330" width="120" height="60" as="geometry" />
        </mxCell>
        <mxCell id="csrXkD2PDQeKHo_xAZEF-13" value="&lt;font style=&quot;font-size: 20px;&quot;&gt;alerter1&lt;/font&gt;" style="rounded=0;whiteSpace=wrap;html=1;" vertex="1" parent="1">
          <mxGeometry x="120" y="340" width="120" height="60" as="geometry" />
        </mxCell>
        <mxCell id="csrXkD2PDQeKHo_xAZEF-46" style="edgeStyle=orthogonalEdgeStyle;rounded=0;orthogonalLoop=1;jettySize=auto;html=1;entryX=1;entryY=0.5;entryDx=0;entryDy=0;" edge="1" parent="1" source="csrXkD2PDQeKHo_xAZEF-14" target="csrXkD2PDQeKHo_xAZEF-39">
          <mxGeometry relative="1" as="geometry">
            <Array as="points">
              <mxPoint x="250" y="50" />
            </Array>
          </mxGeometry>
        </mxCell>
        <mxCell id="csrXkD2PDQeKHo_xAZEF-14" value="&lt;span style=&quot;font-size: 20px;&quot;&gt;......&lt;/span&gt;" style="rounded=0;whiteSpace=wrap;html=1;" vertex="1" parent="1">
          <mxGeometry x="130" y="350" width="120" height="60" as="geometry" />
        </mxCell>
        <mxCell id="csrXkD2PDQeKHo_xAZEF-30" style="edgeStyle=orthogonalEdgeStyle;rounded=0;orthogonalLoop=1;jettySize=auto;html=1;entryX=0.25;entryY=0;entryDx=0;entryDy=0;" edge="1" parent="1" source="csrXkD2PDQeKHo_xAZEF-21" target="csrXkD2PDQeKHo_xAZEF-23">
          <mxGeometry relative="1" as="geometry" />
        </mxCell>
        <mxCell id="csrXkD2PDQeKHo_xAZEF-31" style="edgeStyle=orthogonalEdgeStyle;rounded=0;orthogonalLoop=1;jettySize=auto;html=1;entryX=0.5;entryY=0;entryDx=0;entryDy=0;" edge="1" parent="1" source="csrXkD2PDQeKHo_xAZEF-21" target="csrXkD2PDQeKHo_xAZEF-26">
          <mxGeometry relative="1" as="geometry" />
        </mxCell>
        <mxCell id="csrXkD2PDQeKHo_xAZEF-32" style="edgeStyle=orthogonalEdgeStyle;rounded=0;orthogonalLoop=1;jettySize=auto;html=1;" edge="1" parent="1" source="csrXkD2PDQeKHo_xAZEF-21" target="csrXkD2PDQeKHo_xAZEF-24">
          <mxGeometry relative="1" as="geometry" />
        </mxCell>
        <mxCell id="csrXkD2PDQeKHo_xAZEF-33" style="edgeStyle=orthogonalEdgeStyle;rounded=0;orthogonalLoop=1;jettySize=auto;html=1;entryX=0.5;entryY=0;entryDx=0;entryDy=0;" edge="1" parent="1" source="csrXkD2PDQeKHo_xAZEF-21" target="csrXkD2PDQeKHo_xAZEF-25">
          <mxGeometry relative="1" as="geometry" />
        </mxCell>
        <mxCell id="csrXkD2PDQeKHo_xAZEF-38" style="edgeStyle=orthogonalEdgeStyle;rounded=0;orthogonalLoop=1;jettySize=auto;html=1;entryX=0.75;entryY=1;entryDx=0;entryDy=0;" edge="1" parent="1" source="csrXkD2PDQeKHo_xAZEF-21" target="csrXkD2PDQeKHo_xAZEF-1">
          <mxGeometry relative="1" as="geometry">
            <Array as="points">
              <mxPoint x="-140" y="330" />
              <mxPoint x="-140" y="330" />
            </Array>
          </mxGeometry>
        </mxCell>
        <mxCell id="csrXkD2PDQeKHo_xAZEF-21" value="&lt;font style=&quot;font-size: 25px;&quot;&gt;monitor&lt;/font&gt;" style="rounded=0;whiteSpace=wrap;html=1;" vertex="1" parent="1">
          <mxGeometry x="-320" y="350" width="240" height="60" as="geometry" />
        </mxCell>
        <mxCell id="csrXkD2PDQeKHo_xAZEF-23" value="&lt;font style=&quot;font-size: 20px;&quot;&gt;asset-1&lt;/font&gt;" style="rounded=0;whiteSpace=wrap;html=1;" vertex="1" parent="1">
          <mxGeometry x="-465" y="480" width="120" height="60" as="geometry" />
        </mxCell>
        <mxCell id="csrXkD2PDQeKHo_xAZEF-24" value="&lt;font style=&quot;font-size: 20px;&quot;&gt;asset-2&lt;/font&gt;" style="rounded=0;whiteSpace=wrap;html=1;" vertex="1" parent="1">
          <mxGeometry x="-335" y="480" width="120" height="60" as="geometry" />
        </mxCell>
        <mxCell id="csrXkD2PDQeKHo_xAZEF-25" value="&lt;font style=&quot;font-size: 20px;&quot;&gt;asset-3&lt;/font&gt;" style="rounded=0;whiteSpace=wrap;html=1;" vertex="1" parent="1">
          <mxGeometry x="-205" y="480" width="120" height="60" as="geometry" />
        </mxCell>
        <mxCell id="csrXkD2PDQeKHo_xAZEF-26" value="asset-1" style="rounded=0;whiteSpace=wrap;html=1;" vertex="1" parent="1">
          <mxGeometry x="-75" y="480" width="120" height="60" as="geometry" />
        </mxCell>
        <mxCell id="csrXkD2PDQeKHo_xAZEF-28" value="asset-1" style="rounded=0;whiteSpace=wrap;html=1;" vertex="1" parent="1">
          <mxGeometry x="-65" y="490" width="120" height="60" as="geometry" />
        </mxCell>
        <mxCell id="csrXkD2PDQeKHo_xAZEF-29" value="&lt;font style=&quot;font-size: 20px;&quot;&gt;......&lt;/font&gt;" style="rounded=0;whiteSpace=wrap;html=1;" vertex="1" parent="1">
          <mxGeometry x="-55" y="500" width="120" height="60" as="geometry" />
        </mxCell>
        <mxCell id="csrXkD2PDQeKHo_xAZEF-39" value="TEMPLATE" style="rounded=0;whiteSpace=wrap;html=1;" vertex="1" parent="1">
          <mxGeometry x="-180" y="10" width="410" height="80" as="geometry" />
        </mxCell>
      </root>
    </mxGraphModel>
  </diagram>
</mxfile>
